HIERARCHY
ROOT Hips
{
	OFFSET 0.000000 121.760803 0.000000
	CHANNELS 6 Xposition Yposition Zposition Xrotation Yrotation Zrotation 
	JOINT Spine
	{
		OFFSET 0.072000 7.257294 -0.789700
		CHANNELS 3 Xrotation Yrotation Zrotation
		JOINT Spine1
		{
			OFFSET 0.000000 12.508769 -0.658067
			CHANNELS 3 Xrotation Yrotation Zrotation
			JOINT Spine1_split
			{
				OFFSET 0.000000 12.508769 -0.658067
				CHANNELS 3 Xrotation Yrotation Zrotation
				JOINT Spine2
				{
					OFFSET 0.000000 12.508769 -0.658067
					CHANNELS 3 Xrotation Yrotation Zrotation
					JOINT Neck
					{
						OFFSET 0.000000 14.033295 7.520400
						CHANNELS 3 Xrotation Yrotation Zrotation
						JOINT Head
						{
							OFFSET 0.000000 8.198502 5.703100
							CHANNELS 3 Xrotation Yrotation Zrotation
							JOINT HeadTop_End
							{
								OFFSET 0.000000 17.760803 13.332701
								CHANNELS 3 Xrotation Yrotation Zrotation
								End Site
								{
									OFFSET 0.000000 0.000000 0.000000
								}
							}
						}
					}
					JOINT LeftShoulder
					{
						OFFSET 6.292450 5.785301 -0.669000
						CHANNELS 3 Xrotation Yrotation Zrotation
						JOINT LeftShoulder_split
						{
							OFFSET 6.292450 5.785301 -0.669000
							CHANNELS 3 Xrotation Yrotation Zrotation
							JOINT LeftArm
							{
								OFFSET 13.907140 -6.093903 1.965100
								CHANNELS 3 Xrotation Yrotation Zrotation
								JOINT LeftForeArm
								{
									OFFSET 34.140198 0.000000 0.000000
									CHANNELS 3 Xrotation Yrotation Zrotation
									JOINT LeftHand
									{
										OFFSET 40.960209 0.000000 0.000000
										CHANNELS 3 Xrotation Yrotation Zrotation
										JOINT LeftHandThumb1
										{
											OFFSET 10.006996 -7.170425 9.573125
											CHANNELS 3 Xrotation Yrotation Zrotation
											JOINT LeftHandThumb2
											{
												OFFSET 1.835007 -1.059448 1.059443
												CHANNELS 3 Xrotation Yrotation Zrotation
												JOINT LeftHandThumb3
												{
													OFFSET 2.112267 -1.219513 1.219518
													CHANNELS 3 Xrotation Yrotation Zrotation
													JOINT LeftHandThumb4
													{
														OFFSET 4.843811 -2.796570 2.796576
														CHANNELS 3 Xrotation Yrotation Zrotation
														End Site
														{
															OFFSET 0.000000 0.000000 0.000000
														}
													}
												}
											}
										}
										JOINT LeftHandIndex1
										{
											OFFSET 18.389847 -0.922348 4.596882
											CHANNELS 3 Xrotation Yrotation Zrotation
											JOINT LeftHandIndex2
											{
												OFFSET 4.711273 0.000000 0.000000
												CHANNELS 3 Xrotation Yrotation Zrotation
												JOINT LeftHandIndex3
												{
													OFFSET 2.886131 0.000000 0.000000
													CHANNELS 3 Xrotation Yrotation Zrotation
													JOINT LeftHandIndex4
													{
														OFFSET 6.145912 0.000000 0.000000
														CHANNELS 3 Xrotation Yrotation Zrotation
														End Site
														{
															OFFSET 0.000000 0.000000 0.000000
														}
													}
												}
											}
										}
										JOINT LeftHandMiddle1
										{
											OFFSET 18.013008 0.000000 0.000000
											CHANNELS 3 Xrotation Yrotation Zrotation
											JOINT LeftHandMiddle2
											{
												OFFSET 4.946693 0.000000 0.000000
												CHANNELS 3 Xrotation Yrotation Zrotation
												JOINT LeftHandMiddle3
												{
													OFFSET 3.342232 0.000000 0.000000
													CHANNELS 3 Xrotation Yrotation Zrotation
													JOINT LeftHandMiddle4
													{
														OFFSET 4.461754 0.000000 0.000000
														CHANNELS 3 Xrotation Yrotation Zrotation
														End Site
														{
															OFFSET 0.000000 0.000000 0.000000
														}
													}
												}
											}
										}
										JOINT LeftHandRing1
										{
											OFFSET 15.849892 -0.102921 -4.126150
											CHANNELS 3 Xrotation Yrotation Zrotation
											JOINT LeftHandRing2
											{
												OFFSET 3.527054 0.000000 0.000000
												CHANNELS 3 Xrotation Yrotation Zrotation
												JOINT LeftHandRing3
												{
													OFFSET 2.961098 0.000000 0.000000
													CHANNELS 3 Xrotation Yrotation Zrotation
													JOINT LeftHandRing4
													{
														OFFSET 4.927200 0.000000 0.000000
														CHANNELS 3 Xrotation Yrotation Zrotation
														End Site
														{
															OFFSET 0.000000 0.000000 0.000000
														}
													}
												}
											}
										}
										JOINT LeftHandPinky1
										{
											OFFSET 12.791824 -0.832031 -6.799156
											CHANNELS 3 Xrotation Yrotation Zrotation
											JOINT LeftHandPinky2
											{
												OFFSET 3.327133 0.000000 0.000000
												CHANNELS 3 Xrotation Yrotation Zrotation
												JOINT LeftHandPinky3
												{
													OFFSET 3.014900 0.000000 0.000000
													CHANNELS 3 Xrotation Yrotation Zrotation
													JOINT LeftHandPinky4
													{
														OFFSET 5.847786 0.000000 0.000000
														CHANNELS 3 Xrotation Yrotation Zrotation
														End Site
														{
															OFFSET 0.000000 0.000000 0.000000
														}
													}
												}
											}
										}
									}
								}
							}
						}
					}
					JOINT RightShoulder
					{
						OFFSET -6.292450 5.785301 -0.669000
						CHANNELS 3 Xrotation Yrotation Zrotation
						JOINT RightShoulder_split
						{
							OFFSET -6.292450 5.785301 -0.669000
							CHANNELS 3 Xrotation Yrotation Zrotation
							JOINT RightArm
							{
								OFFSET -13.907140 -6.093903 1.965100
								CHANNELS 3 Xrotation Yrotation Zrotation
								JOINT RightForeArm
								{
									OFFSET -34.140198 0.000000 0.000000
									CHANNELS 3 Xrotation Yrotation Zrotation
									JOINT RightHand
									{
										OFFSET -40.960209 0.000000 0.000000
										CHANNELS 3 Xrotation Yrotation Zrotation
										JOINT RightHandThumb1
										{
											OFFSET -10.007050 -7.170456 9.573117
											CHANNELS 3 Xrotation Yrotation Zrotation
											JOINT RightHandThumb2
											{
												OFFSET -1.835007 -1.059448 1.059443
												CHANNELS 3 Xrotation Yrotation Zrotation
												JOINT RightHandThumb3
												{
													OFFSET -2.112267 -1.219513 1.219518
													CHANNELS 3 Xrotation Yrotation Zrotation
													JOINT RightHandThumb4
													{
														OFFSET -4.843834 -2.796585 2.796590
														CHANNELS 3 Xrotation Yrotation Zrotation
														End Site
														{
															OFFSET 0.000000 0.000000 0.000000
														}
													}
												}
											}
										}
										JOINT RightHandIndex1
										{
											OFFSET -18.389870 -0.922424 4.596786
											CHANNELS 3 Xrotation Yrotation Zrotation
											JOINT RightHandIndex2
											{
												OFFSET -4.711273 0.000000 0.000000
												CHANNELS 3 Xrotation Yrotation Zrotation
												JOINT RightHandIndex3
												{
													OFFSET -2.886131 0.000000 0.000000
													CHANNELS 3 Xrotation Yrotation Zrotation
													JOINT RightHandIndex4
													{
														OFFSET -6.145920 0.000000 0.000000
														CHANNELS 3 Xrotation Yrotation Zrotation
														End Site
														{
															OFFSET 0.000000 0.000000 0.000000
														}
													}
												}
											}
										}
										JOINT RightHandMiddle1
										{
											OFFSET -18.013008 0.000000 0.000000
											CHANNELS 3 Xrotation Yrotation Zrotation
											JOINT RightHandMiddle2
											{
												OFFSET -4.946693 0.000000 0.000000
												CHANNELS 3 Xrotation Yrotation Zrotation
												JOINT RightHandMiddle3
												{
													OFFSET -3.342232 0.000000 0.000000
													CHANNELS 3 Xrotation Yrotation Zrotation
													JOINT RightHandMiddle4
													{
														OFFSET -4.461754 0.000000 0.000000
														CHANNELS 3 Xrotation Yrotation Zrotation
														End Site
														{
															OFFSET 0.000000 0.000000 0.000000
														}
													}
												}
											}
										}
										JOINT RightHandRing1
										{
											OFFSET -15.849876 -0.102936 -4.126237
											CHANNELS 3 Xrotation Yrotation Zrotation
											JOINT RightHandRing2
											{
												OFFSET -3.527054 0.000000 0.000000
												CHANNELS 3 Xrotation Yrotation Zrotation
												JOINT RightHandRing3
												{
													OFFSET -2.961098 0.000000 0.000000
													CHANNELS 3 Xrotation Yrotation Zrotation
													JOINT RightHandRing4
													{
														OFFSET -4.927200 0.000000 0.000000
														CHANNELS 3 Xrotation Yrotation Zrotation
														End Site
														{
															OFFSET 0.000000 0.000000 0.000000
														}
													}
												}
											}
										}
										JOINT RightHandPinky1
										{
											OFFSET -12.791786 -0.832077 -6.799222
											CHANNELS 3 Xrotation Yrotation Zrotation
											JOINT RightHandPinky2
											{
												OFFSET -3.327133 0.000000 0.000000
												CHANNELS 3 Xrotation Yrotation Zrotation
												JOINT RightHandPinky3
												{
													OFFSET -3.014900 0.000000 0.000000
													CHANNELS 3 Xrotation Yrotation Zrotation
													JOINT RightHandPinky4
													{
														OFFSET -5.847786 0.000000 0.000000
														CHANNELS 3 Xrotation Yrotation Zrotation
														End Site
														{
															OFFSET 0.000000 0.000000 0.000000
														}
													}
												}
											}
										}
									}
								}
							}
						}
					}
				}
			}
		}
	}
	JOINT LeftUpLeg
	{
		OFFSET 13.026900 -6.336304 -1.092800
		CHANNELS 3 Xrotation Yrotation Zrotation
		JOINT LeftLeg
		{
			OFFSET 0.524474 -46.096886 9.782700
			CHANNELS 3 Xrotation Yrotation Zrotation
			JOINT LeftFoot
			{
				OFFSET -0.524474 -53.427422 -12.948200
				CHANNELS 3 Xrotation Yrotation Zrotation
				JOINT LeftToeBase
				{
					OFFSET 0.192200 -14.009700 16.364100
					CHANNELS 3 Xrotation Yrotation Zrotation
					JOINT LeftToe_End
					{
						OFFSET -1.784700 -0.561700 9.474800
						CHANNELS 3 Xrotation Yrotation Zrotation
						End Site
						{
							OFFSET 0.000000 0.000000 0.000000
						}
					}
				}
			}
		}
	}
	JOINT RightUpLeg
	{
		OFFSET -12.883000 -6.336304 -1.092800
		CHANNELS 3 Xrotation Yrotation Zrotation
		JOINT RightLeg
		{
			OFFSET -0.524587 -46.096825 9.782800
			CHANNELS 3 Xrotation Yrotation Zrotation
			JOINT RightFoot
			{
				OFFSET 0.524587 -53.427383 -12.948300
				CHANNELS 3 Xrotation Yrotation Zrotation
				JOINT RightToeBase
				{
					OFFSET -0.192200 -14.009700 16.364100
					CHANNELS 3 Xrotation Yrotation Zrotation
					JOINT RightToe_End
					{
						OFFSET 1.784700 -0.561700 9.474800
						CHANNELS 3 Xrotation Yrotation Zrotation
						End Site
						{
							OFFSET 0.000000 0.000000 0.000000
						}
					}
				}
			}
		}
	}
}
MOTION
Frames: 4
Frame Time: 0.016667
0.088269 119.495956 1.089211 -4.056023 6.168401 -1.805054 4.903657 -0.351516 1.262097 5.814412 -0.121246 1.891503 0.000000 0.000000 0.000000 -4.300226 -0.608021 -1.115062 1.348863 -1.122447 0.966616 4.180612 -0.441330 -1.260351 -0.000000 -0.000000 -0.000000 1.687380 -7.781275 -3.495010 0.000000 0.000000 0.000000 -0.671929 -2.004021 -76.954211 6.346061 -10.905882 1.751781 -0.215898 -0.743849 3.407683 -3.786632 8.458017 12.355390 7.478461 11.594935 -1.281174 1.099773 8.860687 5.173496 -0.000000 -0.000001 -0.000001 2.378702 3.620432 -6.815223 0.000190 0.249696 -17.103509 0.030317 0.177345 -12.954570 -0.000001 -0.000000 -0.000000 -1.935723 5.644665 -11.386956 0.106899 0.707437 -24.767376 0.016761 0.019713 -9.474785 0.000000 -0.000000 0.000000 -4.873102 10.020051 -7.875463 -0.020638 0.335917 -30.084746 0.121665 0.713925 -12.603115 0.000000 -0.000000 0.000002 -6.437477 11.282573 -19.770894 0.037272 0.251331 -30.842149 0.001914 0.134814 -11.459647 -0.000000 -0.000000 0.000002 2.088908 10.213786 4.097142 0.000000 0.000000 0.000000 1.436092 3.709009 75.271799 15.720261 15.338530 -4.555625 -4.674569 -0.553305 -0.689858 -0.464246 -8.992502 -6.084862 7.449362 -11.614442 1.291250 1.128415 -8.847597 -5.184707 0.000001 0.000002 0.000001 2.362066 -3.634245 8.333119 0.014194 -0.252982 18.622471 0.018940 -0.182393 14.473395 -0.000002 0.000000 0.000001 -1.983679 -5.671337 13.530153 0.119628 -0.656144 26.914145 0.016198 -0.036410 11.621531 -0.000001 -0.000001 -0.000001 -4.978005 -10.100874 10.695791 -0.012091 -0.340809 32.924039 0.105489 -0.698162 15.440840 0.000001 -0.000000 0.000000 -6.474134 -11.323129 23.226058 0.055857 -0.250360 34.317845 0.024756 -0.133020 14.920005 -0.000001 -0.000003 -0.000002 -1.996250 11.136890 9.924261 8.915759 -6.497311 0.247299 -4.063204 0.511158 -6.341882 -0.000188 0.000003 0.000012 -0.000000 0.000001 0.000000 -0.436188 -5.952845 1.978954 8.138841 3.373189 -0.566678 -3.443837 0.089191 0.150865 -0.001321 0.000003 0.000001 0.000000 0.000000 0.000000 
0.080902 119.469162 1.130758 -4.045199 5.955853 -1.825088 5.236559 -0.324862 1.217085 5.633655 -0.121063 1.918716 0.000000 0.000000 0.000000 -4.352965 -0.591954 -1.049514 1.377146 -1.090218 0.931312 3.936335 -0.412710 -1.296462 0.000001 0.000000 0.000000 1.651269 -7.731094 -3.681486 0.000000 0.000000 0.000000 -0.695460 -2.100489 -76.810914 6.241779 -10.917069 1.584170 -0.232984 -0.585452 3.802316 -3.785241 8.454648 12.355328 7.482391 11.596694 -1.286019 1.098161 8.860594 5.176394 0.000001 -0.000000 -0.000004 2.379208 3.629046 -6.788374 0.000126 0.249695 -17.091013 0.030248 0.177348 -12.939064 0.000001 -0.000000 0.000001 -1.939387 5.657833 -11.364462 0.106885 0.707410 -24.761685 0.016708 0.019624 -9.457732 0.000001 -0.000000 -0.000000 -4.878424 10.039912 -7.848572 -0.020615 0.335914 -30.084716 0.121519 0.713836 -12.587872 0.000000 0.000000 0.000004 -6.440637 11.305773 -19.752704 0.037309 0.251355 -30.842115 0.001878 0.134701 -11.443424 0.000000 -0.000000 -0.000003 2.064652 10.089338 4.140848 0.000000 0.000000 0.000000 1.630636 4.074593 75.042114 15.586960 15.435714 -4.453108 -5.016228 -0.489170 -0.883008 -0.464702 -9.050172 -6.077192 7.438698 -11.615225 1.273094 1.122878 -8.803503 -5.159469 0.000002 0.000000 -0.000003 2.381002 -3.625717 8.514079 0.014269 -0.253019 18.699448 0.019283 -0.182425 14.569565 -0.000002 0.000001 0.000002 -1.956557 -5.652397 13.660323 0.119710 -0.656249 26.931487 0.016592 -0.036858 11.715587 0.000000 -0.000000 -0.000001 -4.927669 -10.055872 10.840798 -0.012116 -0.340701 32.907756 0.106180 -0.698474 15.512608 0.000001 -0.000002 0.000003 -6.435787 -11.256296 23.302848 0.055749 -0.250264 34.290227 0.024994 -0.133360 14.990240 -0.000000 0.000001 0.000002 -1.985880 11.227254 9.987025 8.989122 -6.391509 0.208144 -4.154457 0.517171 -6.353327 -0.034906 -0.042888 0.071579 0.000000 -0.000001 -0.000000 -0.519124 -5.988630 1.967343 8.261633 3.613924 -0.495241 -3.483413 0.097356 0.061452 0.015391 0.002917 0.002717 -0.000000 -0.000000 0.000000 
0.073737 119.431740 1.173412 -3.951373 5.770245 -1.850490 5.415979 -0.330488 1.229425 5.522214 -0.132480 1.904806 0.000000 0.000000 0.000000 -4.333485 -0.594681 -1.023816 1.247723 -1.042278 0.952613 3.900948 -0.349568 -1.362773 -0.000000 -0.000000 -0.000000 1.620307 -7.552170 -3.860862 0.000000 0.000000 0.000000 -0.751193 -2.300622 -76.607135 6.273866 -11.004184 1.438893 -0.243638 -0.478227 4.018973 -3.781379 8.444590 12.355057 7.491352 11.602856 -1.294931 1.093872 8.860356 5.184074 -0.000000 0.000001 -0.000002 2.378278 3.651458 -6.736844 0.000123 0.249669 -17.072087 0.030159 0.177337 -12.911844 -0.000001 0.000000 0.000001 -1.949741 5.684352 -11.316866 0.106865 0.707401 -24.756627 0.016562 0.019414 -9.420251 0.000001 0.000000 -0.000001 -4.898105 10.077518 -7.782063 -0.020652 0.335930 -30.084712 0.121204 0.713697 -12.551528 -0.000000 0.000000 -0.000003 -6.457034 11.350209 -19.703788 0.037300 0.251348 -30.842132 0.001764 0.134503 -11.399558 0.000000 0.000000 0.000001 1.990163 10.065643 4.383187 0.000000 0.000000 0.000000 2.016832 4.166794 74.641919 15.644905 15.971448 -4.499026 -5.149061 -0.647289 -1.037952 -0.465261 -9.107755 -6.069215 7.427798 -11.616022 1.254587 1.114832 -8.760901 -5.132260 0.000002 0.000001 -0.000002 2.399820 -3.617031 8.697705 0.014321 -0.253100 18.778302 0.019658 -0.182453 14.667546 0.000003 0.000000 0.000001 -1.929488 -5.635146 13.790686 0.119795 -0.656290 26.948959 0.016971 -0.037333 11.809868 -0.000002 0.000000 0.000000 -4.877850 -10.011676 10.983898 -0.012122 -0.340598 32.890055 0.106804 -0.698740 15.583070 -0.000001 -0.000002 -0.000001 -6.398391 -11.189221 23.375003 0.055656 -0.250146 34.259484 0.025178 -0.133658 15.057599 -0.000000 0.000002 0.000003 -2.083538 11.247217 10.031113 9.106386 -6.249066 0.199906 -4.254506 0.525360 -6.380799 -0.074485 -0.067598 0.115872 -0.000000 -0.000000 0.000000 -0.715235 -5.976841 1.973229 8.423920 3.856130 -0.463082 -3.519892 0.103493 0.005056 -0.062531 -0.102872 0.024831 -0.000000 -0.000000 0.000000 
0.040657 119.383987 1.219037 -3.895578 5.568451 -1.884619 5.796719 -0.337523 1.157969 5.242578 -0.156768 1.980718 0.000000 0.000000 0.000000 -4.477640 -0.616531 -0.907269 1.569829 -0.951846 0.854656 3.456797 -0.286825 -1.374109 0.000001 -0.000000 0.000000 1.575139 -7.497787 -4.111633 0.000000 0.000000 0.000000 -0.649929 -2.291441 -76.423267 6.332388 -11.136893 1.329753 -0.228589 -0.569913 4.292982 -3.777147 8.428107 12.358915 7.504804 11.613068 -1.307462 1.087079 8.859926 5.196219 0.000001 0.000001 0.000001 2.372267 3.686787 -6.663245 0.000119 0.249629 -17.048065 0.030007 0.177353 -12.874286 -0.000002 -0.000000 0.000001 -1.965977 5.722493 -11.247137 0.106861 0.707378 -24.752402 0.016353 0.019131 -9.364696 -0.000002 -0.000000 0.000002 -4.930796 10.130576 -7.680382 -0.020617 0.335940 -30.088298 0.120684 0.713445 -12.496590 -0.000000 0.000000 0.000000 -6.485183 11.413299 -19.627464 0.037290 0.251328 -30.842132 0.001601 0.134206 -11.331498 0.000000 0.000000 0.000000 1.992628 10.037302 4.259008 0.000000 0.000000 0.000000 2.129313 4.477112 74.585755 15.564227 15.783205 -4.347660 -5.452088 -0.363446 -1.427770 -0.465852 -9.165421 -6.061403 7.416871 -11.616835 1.235992 1.107091 -8.718345 -5.104517 -0.000003 -0.000001 -0.000002 2.418916 -3.608134 8.883892 0.014424 -0.253173 18.859037 0.020054 -0.182458 14.767251 -0.000003 -0.000002 -0.000002 -1.902499 -5.619330 13.921311 0.119914 -0.656337 26.966543 0.017335 -0.037824 11.904247 -0.000001 -0.000002 -0.000003 -4.828697 -9.968006 11.124723 -0.012146 -0.340478 32.871429 0.107489 -0.699013 15.652340 0.000000 -0.000003 0.000003 -6.362058 -11.121741 23.442855 0.055561 -0.250003 34.225917 0.025341 -0.133942 15.122169 -0.000001 0.000003 0.000000 -2.169661 11.323301 10.125326 9.255069 -6.157958 0.165603 -4.373530 0.533500 -6.405018 -0.092001 -0.105167 0.133824 -0.000000 0.000001 0.000000 -0.883388 -5.953367 1.987366 8.625709 3.988132 -0.407159 -3.583895 0.108062 -0.076464 -0.013942 -0.038571 -0.009522 -0.000000 0.000000 -0.000000 
